<svg width="105" height="12" viewBox="0 0 105 12" fill="none" xmlns="http://www.w3.org/2000/svg">
<path d="M5.51074 1.04688V11H3.4668V1.04688H5.51074ZM8.57324 1.04688V2.65332H0.452148V1.04688H8.57324ZM13.6182 7.45215H11.082V5.85254H13.6182C14.0101 5.85254 14.3291 5.78874 14.5752 5.66113C14.8213 5.52897 15.0013 5.34668 15.1152 5.11426C15.2292 4.88184 15.2861 4.61979 15.2861 4.32812C15.2861 4.0319 15.2292 3.75618 15.1152 3.50098C15.0013 3.24577 14.8213 3.04069 14.5752 2.88574C14.3291 2.73079 14.0101 2.65332 13.6182 2.65332H11.793V11H9.74219V1.04688H13.6182C14.3975 1.04688 15.0651 1.18815 15.6211 1.4707C16.1816 1.7487 16.61 2.13379 16.9062 2.62598C17.2025 3.11816 17.3506 3.68099 17.3506 4.31445C17.3506 4.95703 17.2025 5.51302 16.9062 5.98242C16.61 6.45182 16.1816 6.81413 15.6211 7.06934C15.0651 7.32454 14.3975 7.45215 13.6182 7.45215ZM25.4443 9.40039V11H20.1465V9.40039H25.4443ZM20.8164 1.04688V11H18.7656V1.04688H20.8164ZM24.7539 5.10059V6.65918H20.1465V5.10059H24.7539ZM25.4375 1.04688V2.65332H20.1465V1.04688H25.4375ZM33.2783 5.10059V6.7002H28.083V5.10059H33.2783ZM28.6914 1.04688V11H26.6406V1.04688H28.6914ZM34.7412 1.04688V11H32.6973V1.04688H34.7412ZM43.2041 9.40039V11H37.9062V9.40039H43.2041ZM38.5762 1.04688V11H36.5254V1.04688H38.5762ZM42.5137 5.10059V6.65918H37.9062V5.10059H42.5137ZM43.1973 1.04688V2.65332H37.9062V1.04688H43.1973ZM48.2764 7.45215H45.7402V5.85254H48.2764C48.6683 5.85254 48.9873 5.78874 49.2334 5.66113C49.4795 5.52897 49.6595 5.34668 49.7734 5.11426C49.8874 4.88184 49.9443 4.61979 49.9443 4.32812C49.9443 4.0319 49.8874 3.75618 49.7734 3.50098C49.6595 3.24577 49.4795 3.04069 49.2334 2.88574C48.9873 2.73079 48.6683 2.65332 48.2764 2.65332H46.4512V11H44.4004V1.04688H48.2764C49.0557 1.04688 49.7233 1.18815 50.2793 1.4707C50.8398 1.7487 51.2682 2.13379 51.5645 2.62598C51.8607 3.11816 52.0088 3.68099 52.0088 4.31445C52.0088 4.95703 51.8607 5.51302 51.5645 5.98242C51.2682 6.45182 50.8398 6.81413 50.2793 7.06934C49.7233 7.32454 49.0557 7.45215 48.2764 7.45215Z" fill="#172321"/>
<path d="M65.0176 1.04688V11H62.9668V2.65332H58.9678V11H56.917V1.04688H65.0176ZM70.6846 7.45215H68.1484V5.85254H70.6846C71.0765 5.85254 71.3955 5.78874 71.6416 5.66113C71.8877 5.52897 72.0677 5.34668 72.1816 5.11426C72.2956 4.88184 72.3525 4.61979 72.3525 4.32812C72.3525 4.0319 72.2956 3.75618 72.1816 3.50098C72.0677 3.24577 71.8877 3.04069 71.6416 2.88574C71.3955 2.73079 71.0765 2.65332 70.6846 2.65332H68.8594V11H66.8086V1.04688H70.6846C71.4639 1.04688 72.1315 1.18815 72.6875 1.4707C73.248 1.7487 73.6764 2.13379 73.9727 2.62598C74.2689 3.11816 74.417 3.68099 74.417 4.31445C74.417 4.95703 74.2689 5.51302 73.9727 5.98242C73.6764 6.45182 73.248 6.81413 72.6875 7.06934C72.1315 7.32454 71.4639 7.45215 70.6846 7.45215ZM84.0078 5.79102V6.2627C84.0078 7.01921 83.9053 7.69824 83.7002 8.2998C83.4951 8.90137 83.2057 9.41406 82.832 9.83789C82.4583 10.2572 82.0117 10.5785 81.4922 10.8018C80.9772 11.0251 80.4053 11.1367 79.7764 11.1367C79.152 11.1367 78.5801 11.0251 78.0605 10.8018C77.5456 10.5785 77.099 10.2572 76.7207 9.83789C76.3424 9.41406 76.0485 8.90137 75.8389 8.2998C75.6338 7.69824 75.5312 7.01921 75.5312 6.2627V5.79102C75.5312 5.02995 75.6338 4.35091 75.8389 3.75391C76.0439 3.15234 76.3333 2.63965 76.707 2.21582C77.0853 1.79199 77.5319 1.46842 78.0469 1.24512C78.5664 1.02181 79.1383 0.910156 79.7627 0.910156C80.3916 0.910156 80.9635 1.02181 81.4785 1.24512C81.998 1.46842 82.4447 1.79199 82.8184 2.21582C83.1966 2.63965 83.4883 3.15234 83.6934 3.75391C83.903 4.35091 84.0078 5.02995 84.0078 5.79102ZM81.9365 6.2627V5.77734C81.9365 5.2487 81.8887 4.78385 81.793 4.38281C81.6973 3.98177 81.556 3.64453 81.3691 3.37109C81.1823 3.09766 80.9544 2.89258 80.6855 2.75586C80.4167 2.61458 80.109 2.54395 79.7627 2.54395C79.4163 2.54395 79.1087 2.61458 78.8398 2.75586C78.5755 2.89258 78.3499 3.09766 78.1631 3.37109C77.9808 3.64453 77.8418 3.98177 77.7461 4.38281C77.6504 4.78385 77.6025 5.2487 77.6025 5.77734V6.2627C77.6025 6.78678 77.6504 7.25163 77.7461 7.65723C77.8418 8.05827 77.9831 8.39779 78.1699 8.67578C78.3568 8.94922 78.5846 9.15658 78.8535 9.29785C79.1224 9.43913 79.43 9.50977 79.7764 9.50977C80.1227 9.50977 80.4303 9.43913 80.6992 9.29785C80.9681 9.15658 81.1937 8.94922 81.376 8.67578C81.5583 8.39779 81.6973 8.05827 81.793 7.65723C81.8887 7.25163 81.9365 6.78678 81.9365 6.2627ZM89.2305 1.94238H91.4453C92.0378 1.94238 92.5846 2.04036 93.0859 2.23633C93.5872 2.42773 94.0225 2.70573 94.3916 3.07031C94.7653 3.43034 95.0547 3.86556 95.2598 4.37598C95.4648 4.88184 95.5674 5.44694 95.5674 6.07129C95.5674 6.68197 95.4648 7.23796 95.2598 7.73926C95.0547 8.236 94.7653 8.66211 94.3916 9.01758C94.0225 9.37305 93.5872 9.64648 93.0859 9.83789C92.5846 10.0293 92.0378 10.125 91.4453 10.125H89.2305C88.6335 10.125 88.0843 10.0293 87.583 9.83789C87.0817 9.64648 86.6442 9.37533 86.2705 9.02441C85.8968 8.66895 85.6051 8.24284 85.3955 7.74609C85.1904 7.24935 85.0879 6.69564 85.0879 6.08496C85.0879 5.46061 85.1904 4.89551 85.3955 4.38965C85.6051 3.87923 85.8968 3.44173 86.2705 3.07715C86.6442 2.71257 87.0817 2.43229 87.583 2.23633C88.0843 2.04036 88.6335 1.94238 89.2305 1.94238ZM89.2305 3.58301C88.793 3.58301 88.4079 3.67871 88.0752 3.87012C87.7425 4.06152 87.485 4.34408 87.3027 4.71777C87.1204 5.08691 87.0293 5.54264 87.0293 6.08496C87.0293 6.47689 87.0817 6.82324 87.1865 7.12402C87.2959 7.42025 87.4486 7.66862 87.6445 7.86914C87.8405 8.06966 88.0729 8.22233 88.3418 8.32715C88.6107 8.43197 88.9069 8.48438 89.2305 8.48438H91.459C91.8919 8.48438 92.2702 8.39095 92.5938 8.2041C92.9219 8.01725 93.1771 7.74382 93.3594 7.38379C93.5417 7.02376 93.6328 6.58626 93.6328 6.07129C93.6328 5.66569 93.5804 5.30794 93.4756 4.99805C93.3708 4.68815 93.2227 4.42839 93.0312 4.21875C92.8398 4.00911 92.6097 3.85189 92.3408 3.74707C92.0765 3.6377 91.7826 3.58301 91.459 3.58301H89.2305ZM91.3223 0.636719V11.4102H89.3535V0.636719H91.3223ZM98.8896 7.77344L102.889 1.04688H104.939V11H102.889V4.27344L98.8896 11H96.8389V1.04688H98.8896V7.77344Z" fill="#FF6600"/>
</svg>
