<svg width="84" height="29" viewBox="0 0 84 29" fill="none" xmlns="http://www.w3.org/2000/svg">
<path d="M25.9014 0.046875V10H23.8574V0.046875H25.9014ZM28.9639 0.046875V1.65332H20.8428V0.046875H28.9639ZM36.8115 8.40039V10H31.5137V8.40039H36.8115ZM32.1836 0.046875V10H30.1328V0.046875H32.1836ZM36.1211 4.10059V5.65918H31.5137V4.10059H36.1211ZM36.8047 0.046875V1.65332H31.5137V0.046875H36.8047ZM41.8838 6.45215H39.3477V4.85254H41.8838C42.2757 4.85254 42.5947 4.78874 42.8408 4.66113C43.0869 4.52897 43.2669 4.34668 43.3809 4.11426C43.4948 3.88184 43.5518 3.61979 43.5518 3.32812C43.5518 3.0319 43.4948 2.75618 43.3809 2.50098C43.2669 2.24577 43.0869 2.04069 42.8408 1.88574C42.5947 1.73079 42.2757 1.65332 41.8838 1.65332H40.0586V10H38.0078V0.046875H41.8838C42.6631 0.046875 43.3307 0.188151 43.8867 0.470703C44.4473 0.748698 44.8757 1.13379 45.1719 1.62598C45.4681 2.11816 45.6162 2.68099 45.6162 3.31445C45.6162 3.95703 45.4681 4.51302 45.1719 4.98242C44.8757 5.45182 44.4473 5.81413 43.8867 6.06934C43.3307 6.32454 42.6631 6.45215 41.8838 6.45215ZM50.9072 6.45215H48.3711V4.85254H50.9072C51.2992 4.85254 51.6182 4.78874 51.8643 4.66113C52.1104 4.52897 52.2904 4.34668 52.4043 4.11426C52.5182 3.88184 52.5752 3.61979 52.5752 3.32812C52.5752 3.0319 52.5182 2.75618 52.4043 2.50098C52.2904 2.24577 52.1104 2.04069 51.8643 1.88574C51.6182 1.73079 51.2992 1.65332 50.9072 1.65332H49.082V10H47.0312V0.046875H50.9072C51.6865 0.046875 52.3542 0.188151 52.9102 0.470703C53.4707 0.748698 53.8991 1.13379 54.1953 1.62598C54.4915 2.11816 54.6396 2.68099 54.6396 3.31445C54.6396 3.95703 54.4915 4.51302 54.1953 4.98242C53.8991 5.45182 53.4707 5.81413 52.9102 6.06934C52.3542 6.32454 51.6865 6.45215 50.9072 6.45215ZM58.9668 1.74902L56.2598 10H54.0791L57.7773 0.046875H59.165L58.9668 1.74902ZM61.2158 10L58.502 1.74902L58.2832 0.046875H59.6846L63.4033 10H61.2158ZM61.0928 6.29492V7.90137H55.8359V6.29492H61.0928Z" fill="#EE904C"/>
<path d="M8.00488 18.0469V19.6533H3.05566V18.0469H8.00488ZM9.46777 18.0469V28H7.41699V18.0469H9.46777ZM2.7959 18.0469H4.83984L4.58691 23.0439C4.55046 23.7913 4.47982 24.4408 4.375 24.9922C4.27474 25.5436 4.13802 26.013 3.96484 26.4004C3.79167 26.7832 3.57747 27.0931 3.32227 27.3301C3.07161 27.5625 2.77539 27.7334 2.43359 27.8428C2.0918 27.9476 1.70215 28 1.26465 28H0.758789V26.4004L1.01855 26.3799C1.24186 26.3571 1.43783 26.2979 1.60645 26.2021C1.77507 26.1064 1.91862 25.9629 2.03711 25.7715C2.16016 25.5801 2.26042 25.3363 2.33789 25.04C2.41992 24.7393 2.48372 24.3724 2.5293 23.9395C2.57943 23.5065 2.61361 23.0007 2.63184 22.4219L2.7959 18.0469ZM19.4277 22.791V23.2627C19.4277 24.0192 19.3252 24.6982 19.1201 25.2998C18.915 25.9014 18.6257 26.4141 18.252 26.8379C17.8783 27.2572 17.4316 27.5785 16.9121 27.8018C16.3971 28.0251 15.8252 28.1367 15.1963 28.1367C14.5719 28.1367 14 28.0251 13.4805 27.8018C12.9655 27.5785 12.5189 27.2572 12.1406 26.8379C11.7624 26.4141 11.4684 25.9014 11.2588 25.2998C11.0537 24.6982 10.9512 24.0192 10.9512 23.2627V22.791C10.9512 22.0299 11.0537 21.3509 11.2588 20.7539C11.4639 20.1523 11.7533 19.6396 12.127 19.2158C12.5052 18.792 12.9518 18.4684 13.4668 18.2451C13.9863 18.0218 14.5583 17.9102 15.1826 17.9102C15.8115 17.9102 16.3835 18.0218 16.8984 18.2451C17.418 18.4684 17.8646 18.792 18.2383 19.2158C18.6165 19.6396 18.9082 20.1523 19.1133 20.7539C19.3229 21.3509 19.4277 22.0299 19.4277 22.791ZM17.3564 23.2627V22.7773C17.3564 22.2487 17.3086 21.7839 17.2129 21.3828C17.1172 20.9818 16.9759 20.6445 16.7891 20.3711C16.6022 20.0977 16.3743 19.8926 16.1055 19.7559C15.8366 19.6146 15.529 19.5439 15.1826 19.5439C14.8363 19.5439 14.5286 19.6146 14.2598 19.7559C13.9954 19.8926 13.7699 20.0977 13.583 20.3711C13.4007 20.6445 13.2617 20.9818 13.166 21.3828C13.0703 21.7839 13.0225 22.2487 13.0225 22.7773V23.2627C13.0225 23.7868 13.0703 24.2516 13.166 24.6572C13.2617 25.0583 13.403 25.3978 13.5898 25.6758C13.7767 25.9492 14.0046 26.1566 14.2734 26.2979C14.5423 26.4391 14.8499 26.5098 15.1963 26.5098C15.5426 26.5098 15.8503 26.4391 16.1191 26.2979C16.388 26.1566 16.6136 25.9492 16.7959 25.6758C16.9782 25.3978 17.1172 25.0583 17.2129 24.6572C17.3086 24.2516 17.3564 23.7868 17.3564 23.2627ZM27.4395 18.0469V19.6533H22.9551V28H20.9111V18.0469H27.4395ZM30.6865 24.7734L34.6855 18.0469H36.7363V28H34.6855V21.2734L30.6865 28H28.6357V18.0469H30.6865V24.7734ZM44.2832 24.6982H46.3271C46.2861 25.3682 46.1016 25.9629 45.7734 26.4824C45.4499 27.002 44.9964 27.4076 44.4131 27.6992C43.8343 27.9909 43.137 28.1367 42.3213 28.1367C41.6833 28.1367 41.1113 28.0273 40.6055 27.8086C40.0996 27.5853 39.6667 27.2663 39.3066 26.8516C38.9512 26.4368 38.68 25.9355 38.4932 25.3477C38.3063 24.7598 38.2129 24.1012 38.2129 23.3721V22.6816C38.2129 21.9525 38.3086 21.2939 38.5 20.7061C38.696 20.1136 38.974 19.61 39.334 19.1953C39.6986 18.7806 40.1338 18.4616 40.6396 18.2383C41.1455 18.015 41.7106 17.9033 42.335 17.9033C43.1644 17.9033 43.8639 18.0537 44.4336 18.3545C45.0078 18.6553 45.4521 19.07 45.7666 19.5986C46.0856 20.1273 46.277 20.7288 46.3408 21.4033H44.29C44.2673 21.0023 44.1875 20.6628 44.0508 20.3848C43.9141 20.1022 43.7067 19.8903 43.4287 19.749C43.1553 19.6032 42.7907 19.5303 42.335 19.5303C41.9932 19.5303 41.6947 19.5941 41.4395 19.7217C41.1842 19.8493 40.9701 20.043 40.7969 20.3027C40.6237 20.5625 40.4938 20.8906 40.4072 21.2871C40.3252 21.679 40.2842 22.1393 40.2842 22.668V23.3721C40.2842 23.887 40.3229 24.3405 40.4004 24.7324C40.4779 25.1198 40.5964 25.4479 40.7559 25.7168C40.9199 25.9811 41.1296 26.1816 41.3848 26.3184C41.6445 26.4505 41.9567 26.5166 42.3213 26.5166C42.7497 26.5166 43.1029 26.4482 43.3809 26.3115C43.6589 26.1748 43.8708 25.972 44.0166 25.7031C44.167 25.4342 44.2559 25.0993 44.2832 24.6982ZM51.9189 18.0469V28H49.875V18.0469H51.9189ZM54.9814 18.0469V19.6533H46.8604V18.0469H54.9814ZM58.126 24.7734L62.125 18.0469H64.1758V28H62.125V21.2734L58.126 28H56.0752V18.0469H58.126V24.7734ZM68.0107 18.0469V28H65.96V18.0469H68.0107ZM73.876 18.0469L70.0615 23.8916H67.5527L67.293 22.0664H68.9678L71.3877 18.0469H73.876ZM71.7637 28L68.9746 23.5498L70.3965 22.0869L74.1973 28H71.7637ZM79.0508 19.749L76.3438 28H74.1631L77.8613 18.0469H79.249L79.0508 19.749ZM81.2998 28L78.5859 19.749L78.3672 18.0469H79.7686L83.4873 28H81.2998ZM81.1768 24.2949V25.9014H75.9199V24.2949H81.1768Z" fill="#A71C35"/>
</svg>
