<svg width="120" height="36" viewBox="0 0 120 36" fill="none" xmlns="http://www.w3.org/2000/svg">
<path d="M63.8787 9.96404C63.7122 10.1654 63.618 10.3902 63.618 10.781V21.5287H63.5583C63.5583 21.5287 57.6602 11.0411 57.3751 10.5562C57.1733 10.2123 56.9479 9.97578 56.651 9.79796C56.3541 9.63271 56.0455 9.52618 55.4525 9.52618H53.5064C53.0548 9.52618 52.7705 9.67968 52.5687 9.91707C52.4022 10.1175 52.3071 10.3432 52.3071 10.7332V25.9677C52.3071 26.3586 52.4022 26.5834 52.5687 26.7847C52.7705 27.0212 53.0548 27.1747 53.5064 27.1747H54.6098C55.0606 27.1747 55.3457 27.0212 55.5476 26.7847C55.7133 26.5834 55.8083 26.3586 55.8083 25.9677V14.9591H55.868C55.868 14.9591 61.9915 25.7781 62.2413 26.1807C62.5853 26.7486 63.1664 27.1747 63.9973 27.1747H65.8846C66.3354 27.1747 66.6205 27.0212 66.8223 26.7847C66.988 26.5834 67.083 26.3586 67.083 25.9677V12.2246H91.8755C92.1253 12.2246 92.3145 12.1542 92.4575 12.0359C92.6114 11.8933 92.6829 11.7037 92.6829 11.4202V10.3784C92.6829 10.0941 92.6114 9.90448 92.4575 9.76273C92.3145 9.64445 92.1253 9.57316 91.8755 9.57316H64.8165C64.3657 9.57316 64.0806 9.7275 63.8787 9.96404ZM74.7027 14.0356C70.5842 14.0356 68.2697 17.2441 68.2697 20.6295C68.2697 24.2397 70.7507 27.4121 74.7262 27.4121C76.7085 27.4121 78.6547 26.6664 79.7698 25.352C80.2568 24.7841 80.6487 23.9906 80.6487 23.5058C80.6487 23.3397 80.6126 23.1979 80.5184 23.0914C80.4233 22.9731 80.2803 22.9018 80.0314 22.9018H78.1206C77.7405 22.9018 77.4797 23.0436 77.2897 23.3279C76.7321 24.1449 75.9247 24.5711 74.738 24.5711C72.9576 24.5711 71.8071 23.2214 71.7238 21.7418H79.9843C80.3518 21.7418 80.6126 21.6587 80.7908 21.4817C80.9927 21.2922 81.0877 21.0195 81.0877 20.5104C81.0877 18.9603 80.6008 17.3506 79.5806 16.1192C78.5361 14.8761 76.9457 14.0356 74.7027 14.0356V14.0356ZM87.4366 14.0356C84.1852 14.0356 82.049 15.5748 82.049 18.0367C82.049 18.9125 82.3694 19.6229 82.8917 20.1791C83.4973 20.8308 84.3635 21.2804 85.6217 21.6L88.339 22.2861C89.0867 22.4757 89.7511 22.7005 89.7511 23.3514C89.7511 24.358 88.683 24.7011 87.5443 24.7011C86.9858 24.7011 86.4047 24.5945 85.9295 24.358C85.5973 24.1919 85.313 23.9554 85.1112 23.6358C84.9329 23.3632 84.874 23.1619 84.6007 23.0084C84.4342 22.9136 84.2323 22.9018 83.9598 22.9018H82.488C82.1676 22.9018 82.0137 22.9966 81.9069 23.1266C81.8001 23.2566 81.7639 23.4462 81.7639 23.6358C81.7639 24.1089 81.9304 24.7011 82.3223 25.2337C83.2239 26.4408 85.1112 27.4121 87.5199 27.4121C89.8941 27.4121 93.1816 26.429 93.1816 23.2566C93.1816 22.4405 92.9436 21.7418 92.5046 21.1739C91.947 20.4517 91.1522 19.9543 89.799 19.6112L87.1052 18.9242C85.9892 18.6407 85.4669 18.4394 85.4669 17.7524C85.4669 17.0897 86.0607 16.5571 87.4366 16.5571C88.244 16.5571 88.9799 16.7349 89.4551 17.2323C89.8461 17.6467 89.7755 17.8598 90.0841 18.025C90.2734 18.1198 90.487 18.1198 90.82 18.1198H92.1606C92.3742 18.1198 92.529 18.0846 92.6467 17.9537C92.7426 17.8472 92.8015 17.6819 92.8015 17.4093C92.8015 16.7936 92.3978 16.0009 91.6863 15.397C90.7368 14.58 89.2414 14.0356 87.4366 14.0356V14.0356ZM94.8309 14.4861H94.1665C93.9175 14.4861 93.7274 14.5565 93.5853 14.6748C93.4306 14.8174 93.3591 15.007 93.3591 15.2905V16.1075C93.3591 16.3918 93.4306 16.5806 93.5853 16.7232C93.7274 16.8414 93.9175 16.9127 94.1665 16.9127H94.8309V22.8188C94.8309 24.3337 95.2463 25.2807 96.0175 26.039C96.7299 26.7369 97.6559 27.1747 99.2698 27.1747H100.278C100.528 27.1747 100.717 27.1043 100.86 26.986C101.014 26.8434 101.109 26.6538 101.109 26.3703V25.3402C101.109 25.0559 101.014 24.8672 100.86 24.7246C100.717 24.6063 100.528 24.535 100.278 24.535H100.136C99.4952 24.535 99.0562 24.3697 98.7593 24.0854C98.4035 23.7541 98.2252 23.2449 98.2252 22.5822V16.9127H100.386C100.635 16.9127 100.825 16.8414 100.967 16.7232C101.121 16.5806 101.192 16.3918 101.192 16.1075V15.2905C101.192 15.007 101.121 14.8174 100.967 14.6748C100.825 14.5565 100.635 14.4861 100.386 14.4861H98.237V10.6267C98.237 10.3189 98.142 10.0941 97.9998 9.91707C97.8215 9.70401 97.5726 9.57316 97.2051 9.57316H95.8636C95.4953 9.57316 95.2463 9.70401 95.068 9.91707C94.9259 10.0941 94.8309 10.3189 94.8309 10.6267V14.4861V14.4861ZM102.095 26.1212C102.095 26.429 102.189 26.6538 102.332 26.8317C102.509 27.0447 102.759 27.1747 103.127 27.1747H104.539C104.907 27.1747 105.156 27.0447 105.334 26.8317C105.477 26.6538 105.572 26.429 105.572 26.1212V10.6275C105.572 10.3197 105.477 10.0949 105.334 9.91707C105.156 9.70401 104.907 9.57316 104.539 9.57316H103.127C102.759 9.57316 102.509 9.70401 102.332 9.91707C102.189 10.0949 102.095 10.3197 102.095 10.6275V26.1212ZM71.7473 19.2203C71.9012 17.7641 73.0173 16.6754 74.7145 16.6754C76.3763 16.6754 77.5268 17.7641 77.6816 19.2203H71.7473ZM118.425 12.2246C118.674 12.2246 118.864 12.1542 119.006 12.0359C119.161 11.8933 119.232 11.7037 119.232 11.4202V10.3189C119.232 9.89274 119.149 9.67968 119.006 9.52618C118.876 9.38358 118.662 9.30138 118.425 9.30138C118.235 9.30138 118.046 9.32487 117.725 9.3601L108.254 10.2954C107.981 10.3189 107.851 10.4019 107.756 10.5084C107.649 10.6267 107.601 10.781 107.601 10.9941V11.6089C107.601 11.8463 107.649 11.9529 107.732 12.0476C107.838 12.1659 107.993 12.2246 108.206 12.2246H118.425V12.2246ZM113.191 14.0356C109.073 14.0356 106.758 17.2441 106.758 20.6295C106.758 24.2397 109.239 27.4121 113.215 27.4121C115.197 27.4121 117.143 26.6664 118.258 25.352C118.745 24.7841 119.137 23.9906 119.137 23.5058C119.137 23.3397 119.101 23.1979 119.006 23.0914C118.912 22.9731 118.769 22.9018 118.52 22.9018H116.609C116.229 22.9018 115.968 23.0436 115.778 23.3279C115.221 24.1449 114.413 24.5711 113.227 24.5711C111.446 24.5711 110.295 23.2214 110.212 21.7418H118.496C118.864 21.7418 119.125 21.6587 119.303 21.4817C119.505 21.2922 119.6 21.0195 119.6 20.5104C119.6 18.9603 119.113 17.3506 118.093 16.1192C117.048 14.8761 115.434 14.0356 113.191 14.0356V14.0356ZM110.236 19.2203C110.391 17.7641 111.506 16.6754 113.203 16.6754C114.865 16.6754 116.015 17.7641 116.17 19.2203H110.236Z" fill="#939CA1"/>
<path d="M38.922 12.3668C35.8497 7.79616 33.15 6.25611 32.3906 5.53138C31.5563 4.73199 30.9205 3.82608 30.516 3.3899C29.6161 2.40933 28.4512 1.19893 26.5354 1.19893C24.686 1.19893 23.464 2.40094 23.067 3.43939C22.9518 3.73549 22.861 4.09786 22.7786 4.22955C22.5969 4.52649 21.7794 5.91807 21.4405 6.47001H22.9686L22.2252 7.86998C23.0923 7.68041 23.7112 7.54033 24.5371 7.54033C25.2722 7.54033 25.8003 7.71396 26.0316 8.17447C26.4614 9.03173 26.4614 11.6253 27.188 13.5781C27.8651 15.4134 29.5168 17.2093 31.3746 18.5849C31.399 18.6009 31.4243 18.6092 31.4571 18.6092C31.5479 18.6092 31.6059 18.5438 31.6059 18.4776C31.6059 18.4281 31.5891 18.3954 31.5479 18.3543C29.9954 16.8058 28.7321 15.093 28.0551 13.2157C27.3857 11.3871 27.4933 8.81699 26.9071 7.67202C26.5186 6.91457 25.6935 6.71746 24.9333 6.71746C24.3227 6.71746 23.7525 6.84076 23.4884 6.8978L24.157 5.7696H23.0258C23.2655 5.3502 23.5128 4.96267 23.6372 4.73199C23.744 4.53404 23.7861 4.28743 23.9181 3.95023C24.3471 2.87068 25.2966 2.18705 26.5354 2.18705C28.0879 2.18705 28.9962 3.18355 29.8961 4.18006C30.3091 4.6414 30.9861 5.6052 31.7708 6.32154C32.3073 6.8156 33.3317 7.36753 34.9086 8.99063C35.8169 9.92925 36.8741 11.148 37.9884 12.7787C41.9774 18.6009 44.5947 23.7319 46.0564 27.7347L46.032 27.7514C41.8454 24.9179 38.2197 22.2413 35.2972 18.9389C33.224 16.5919 31.4243 13.8742 29.8549 10.4065C29.7473 10.1759 29.6573 9.96197 29.558 9.73968C29.5168 9.64909 29.4756 9.62393 29.4092 9.62393C29.3267 9.62393 29.2687 9.68181 29.2687 9.76401C29.2687 9.8546 29.3099 10.0526 29.4008 10.4476C30.2351 14.0386 32.547 17.2588 35.0163 19.9354C37.4771 22.5961 40.2592 24.8852 42.5468 26.5494L44.3306 31.6385C44.3718 31.7626 44.4214 31.8943 44.4214 32.0176C44.4214 32.1082 44.3962 32.182 44.339 32.2315C44.2894 32.281 44.2238 32.3062 44.0749 32.3062H43.5383C43.3071 32.3062 43.2154 32.2726 43.133 32.2072C43.0505 32.1409 42.9934 32.0419 42.9513 31.927C42.7949 31.4489 41.8529 28.7723 41.6721 28.2287C41.6385 28.1306 41.5804 28.097 41.5148 28.097C41.4324 28.097 41.3744 28.1633 41.3744 28.2371C41.3744 28.3034 41.3988 28.3772 41.4408 28.6079C41.6797 29.8266 41.9606 31.1939 42.0758 31.7131C42.1263 31.9513 42.1834 32.1745 42.1834 32.3389C42.1834 32.4865 42.1506 32.5695 42.027 32.6929L41.4736 33.2532C41.3416 33.3849 41.2667 33.4176 41.1599 33.4176C41.0279 33.4176 40.9202 33.327 40.8706 33.0963C40.2432 30.1722 39.2937 26.5494 39.0456 25.5437C38.9876 25.3222 38.9464 25.1981 38.8143 25.1981C38.6991 25.1981 38.6579 25.2803 38.6579 25.3793C38.6579 25.4531 38.6739 25.5437 38.6823 25.61C38.8311 26.6476 39.4341 30.4281 40.0859 33.8789C40.202 34.472 40.4249 34.8008 40.9371 34.8008C41.1683 34.8008 41.3904 34.7102 41.5973 34.5131C41.9362 34.175 42.0346 34.0844 42.44 33.6894C42.7284 33.4092 42.9269 33.2943 43.4223 33.2943H44.6443C44.9336 33.2943 45.09 33.2205 45.2305 33.0879C45.3625 32.9646 45.4449 32.7918 45.4449 32.5444C45.4449 32.2894 45.3793 32.0839 45.2885 31.828C44.9748 30.9884 43.9673 28.1465 43.6695 27.348L43.6948 27.3312C44.7267 28.1138 46.2296 29.1103 46.8906 29.1103C47.0967 29.1103 47.2212 29.0197 47.2212 28.6984C47.2212 27.1836 44.6939 20.9487 38.922 12.3668" fill="#939CA1"/>
<path d="M10.5737 2.79698C10.747 2.41784 11.1271 2.15445 11.5813 2.15445C12.2003 2.15445 12.6956 2.63257 12.6956 3.26671C12.6956 3.63663 12.5224 3.95873 12.2499 4.15585C12.3079 4.37058 12.3491 4.55932 12.3491 4.7405C12.3491 5.43252 11.9362 5.91819 11.1768 6.17402C11.0775 6.59343 10.8959 6.97257 10.5981 7.25273C10.1028 7.73001 9.599 7.73001 9.599 7.92797C9.599 8.03534 9.67385 8.10077 9.8799 8.10077C10.7966 8.10077 11.6965 7.59077 11.8042 6.7419C12.6797 6.4458 13.2078 5.56421 13.2078 4.86464C13.2078 4.68262 13.191 4.5266 13.117 4.37897C13.3567 4.14746 13.6376 3.75238 13.6376 3.16773C13.6376 2.6569 13.4139 2.13851 13.0177 1.75937C12.6712 1.42133 12.1835 1.19905 11.6141 1.19905C10.7882 1.19905 10.2516 1.64445 9.94634 2.08063C9.0456 2.08063 7.88163 3.07714 7.88163 4.50228H7.758C7.67474 4.00822 7.1634 3.67773 6.73364 3.6534C6.38713 2.61579 5.60246 1.72666 4.31402 1.72666C4.166 1.72666 3.98434 1.73504 3.82706 1.75937C3.44776 1.41294 3.02641 1.19905 2.44022 1.19905C1.31662 1.19905 0.399902 2.09741 0.399902 3.23316C0.399902 3.94195 0.722013 4.42762 1.33344 4.85625C1.33344 4.85625 1.32503 4.94684 1.32503 4.98795C1.32503 5.89386 2.31575 7.31061 3.78585 7.31061C3.78585 7.54044 4.07517 7.85416 4.39728 7.9112V8.02695H4.27281C2.25015 8.02695 1.39147 8.99913 1.39147 9.64921C0.788454 9.89666 0.399902 10.5635 0.399902 11.1809C0.399902 12.4081 1.30064 13.2812 2.48984 13.2812C2.88596 13.2812 3.29049 13.1252 3.57139 12.9105C3.77744 12.9843 4.04153 13.0254 4.31402 13.0254C4.88423 13.0254 5.52004 12.8283 5.96578 12.1774C6.03222 12.1858 6.08941 12.1858 6.15585 12.1858C6.8825 12.1858 7.5099 11.7076 7.84042 11.0819C7.92284 10.9259 7.95564 10.8026 7.95564 10.7111C7.95564 10.6214 7.91443 10.5467 7.8236 10.5467C7.70838 10.5467 7.69156 10.6541 7.48551 10.8437C7.02295 11.2639 6.31228 11.4199 5.58564 11.4199C5.23073 11.9392 4.7934 12.2109 4.28963 12.2109C3.9179 12.2109 3.62942 12.112 3.3317 11.914C3.09201 12.1774 2.79513 12.2847 2.50582 12.2847C1.85403 12.2847 1.39147 11.8318 1.39147 11.1725C1.39147 10.7111 1.68835 10.3001 2.10129 10.1433C2.1753 9.32794 3.0508 8.77601 4.14077 8.77601C4.28122 8.77601 4.42167 8.7844 4.57053 8.80117C4.73537 8.53779 5.13149 8.25762 5.69329 8.18297C5.80935 8.16703 5.89934 8.15864 5.96578 8.12593C6.03222 8.09238 6.06502 8.02695 6.06502 7.9523C6.06502 7.88687 6.03979 7.82899 5.97419 7.78789C5.91616 7.75518 5.81692 7.73924 5.7017 7.71408C5.18111 7.6151 4.56212 7.29383 4.24842 6.51122C3.00118 6.51122 2.08447 5.51472 2.08447 4.39491V4.32109C1.67153 4.15585 1.39147 3.76077 1.39147 3.29104C1.39147 2.67367 1.87842 2.17961 2.49741 2.17961C2.86914 2.17961 3.19125 2.3608 3.39814 2.63257C3.57139 2.58308 3.76903 2.56631 3.95911 2.56631C4.88423 2.56631 5.87495 3.15095 6.06502 4.28754C7.25423 4.39491 7.53513 5.3998 7.60914 5.82004C7.65035 6.03394 7.68315 6.21512 7.8236 6.21512C7.97246 6.21512 8.00526 6.04988 8.05488 5.82759C8.14571 5.40819 8.30298 5.07015 8.61668 4.80676C8.61668 3.72722 9.42574 2.79698 10.5737 2.79698Z" fill="#939CA1"/>
<path d="M12.9767 9.25372C12.5881 9.80566 12.3081 10.0774 11.4242 11.115C10.2602 12.4907 9.64877 13.6029 8.63281 16.0732C8.79849 16.0565 9.03818 16.0405 9.30227 16.0405C9.43431 16.0405 9.54112 16.0405 9.71521 16.0481L9.83884 15.7847C10.409 14.5659 11.1761 12.9185 12.25 11.6502L12.6218 11.214C13.7277 9.92142 14.4132 9.15474 14.8429 7.39241C14.9918 6.76665 15.1154 6.20717 15.5368 5.80286C15.9161 5.4405 16.3954 5.28448 16.8824 5.28448C17.2953 5.28448 17.6015 5.38346 18.0472 5.57219C18.4517 5.74499 18.5998 5.77854 19.0295 5.77854C19.1784 5.77854 19.2852 5.77015 19.3844 5.76176L18.8066 6.53598L19.5913 7.08792C18.6082 7.37563 18.0884 8.32348 17.9143 8.75967C17.8815 8.85026 17.8655 8.90813 17.8655 8.96601C17.8655 9.03228 17.8983 9.09771 17.9976 9.09771C18.1044 9.09771 18.1868 9.0155 18.3273 8.85026C18.8066 8.27399 19.1868 7.87808 20.9529 7.32698L19.7065 6.38751L20.6476 5.0127H19.7646C19.2028 5.0127 18.831 5.00432 18.3441 4.78203C17.683 4.47754 17.345 4.34585 16.7588 4.34585C16.0405 4.34585 15.3879 4.60085 14.8513 5.09491C14.2315 5.66278 14.0414 6.42107 13.8194 7.25316C13.6453 7.89485 13.4393 8.60365 12.9767 9.25372Z" fill="#939CA1"/>
<path d="M14.8757 14.8622C14.4047 15.4963 13.7605 16.3276 13.2651 17.2092C13.4224 17.2838 13.943 17.564 14.1247 17.6621C14.694 16.8057 15.4871 15.7521 16.0069 14.9528C16.4778 14.228 16.6679 13.9151 16.7007 12.943C16.7091 12.7786 16.7091 12.6217 16.7251 12.4657C16.7663 11.9632 16.8992 11.4524 17.3777 10.9835C17.7326 10.6287 18.2448 10.4484 18.757 10.4484C19.2524 10.4484 19.5408 10.5876 19.9706 10.5876C20.2759 10.5876 20.4988 10.5138 20.6972 10.44L20.8545 10.3821L20.4744 11.2888L21.3659 11.6504C20.7965 12.0043 19.5492 13.5285 19.5492 15.3319C19.5492 15.9828 19.6485 16.5834 19.7889 17.1186C19.8058 17.1764 19.8386 17.2343 19.9294 17.2343C20.0118 17.2343 20.0698 17.1848 20.0783 17.0942L20.0867 16.9047C20.1111 16.3527 20.1523 15.4804 20.3751 14.6978C20.7469 13.38 21.746 12.1444 22.7451 11.5514L21.3246 10.934L21.9361 9.44346L21.2675 9.58354C20.8629 9.66574 20.5652 9.73956 20.2103 9.73956C19.979 9.73956 19.7149 9.70685 19.4012 9.63219C19.1615 9.57515 18.905 9.52566 18.5425 9.52566C17.8899 9.52566 17.1877 9.77227 16.7091 10.2336C15.8336 11.0657 15.784 11.9632 15.726 12.7626C15.652 13.8246 15.4535 14.0879 14.8757 14.8622Z" fill="#939CA1"/>
<path d="M36.0648 15.3645C36.0068 15.2907 35.9571 15.2571 35.8915 15.2571C35.7923 15.2571 35.7427 15.3234 35.7427 15.3972C35.7427 15.513 35.8251 15.6531 36.032 15.9995C36.6594 17.0614 37.4357 18.1317 38.3936 19.1375C39.4255 20.2321 40.6391 21.2529 41.936 22.1672L42.3405 22.4474C42.3985 22.4893 42.4397 22.5137 42.4893 22.5137C42.5718 22.5137 42.6298 22.4315 42.6298 22.3652C42.6298 22.3241 42.613 22.2822 42.5634 22.2411C41.3582 21.1464 40.0613 19.8119 38.8477 18.5277C37.8974 17.5144 36.9235 16.4441 36.0648 15.3645Z" fill="#939CA1"/>
<path d="M9.49171 11.6338C9.61534 11.4283 9.98708 10.9258 10.1359 10.769C9.50012 9.48476 8.45978 8.25758 8.00563 7.77107L7.62549 8.14183C8.06366 8.77597 8.79787 10.0031 9.49171 11.6338Z" fill="#939CA1"/>
<path d="M3.43946 4.19659C3.36461 4.13032 3.34863 4.08922 3.34863 4.03973C3.34863 3.98269 3.38984 3.91642 3.48067 3.91642C3.51347 3.91642 3.54627 3.92481 3.58832 3.94159C4.19891 4.1882 4.7195 4.47675 5.18206 4.83073C5.56977 5.12682 5.94991 5.49003 6.3208 5.92621L5.9743 6.32129C5.54538 5.96647 4.1577 4.8064 3.43946 4.19659Z" fill="#939CA1"/>
<path d="M9.29389 6.95605L8.84814 6.68428C9.13661 6.00065 9.49237 5.3749 9.91288 4.90517C10.2106 4.56797 10.4915 4.29535 10.8052 4.02442C10.8792 3.96654 10.9204 3.91705 10.9944 3.91705C11.0777 3.91705 11.1357 3.98332 11.1357 4.04874C11.1357 4.08146 11.1189 4.12256 11.0861 4.17205C10.5823 4.95466 9.59918 6.5031 9.29389 6.95605Z" fill="#939CA1"/>
<path d="M3.695 10.7775C3.58735 10.8186 3.53773 10.8438 3.48054 10.8438C3.38971 10.8438 3.34766 10.7691 3.34766 10.7112C3.34766 10.6542 3.37289 10.6215 3.43092 10.5711C4.44603 9.78098 5.33835 9.4681 6.56877 9.26176L6.71679 9.75665L3.695 10.7775Z" fill="#939CA1"/>
<path d="M24.8755 4.38623C24.8755 4.09768 25.0243 3.57845 25.5609 3.57845C25.7426 3.57845 25.9158 3.61955 26.0563 3.68582C26.2548 3.77641 26.3868 3.9081 26.3868 4.04819C26.3868 4.19665 26.2379 4.34512 26.0151 4.52631C25.7838 4.71504 25.4869 4.88867 25.2472 4.88867C24.9587 4.88867 24.8755 4.61606 24.8755 4.38623Z" fill="#939CA1"/>
<path d="M16.4941 6.7911C16.4941 6.43712 16.7086 6.04959 17.1215 6.04959C17.3032 6.04959 17.5177 6.1234 17.6749 6.27271C17.7658 6.35491 17.807 6.44467 17.807 6.5361C17.807 6.73406 17.6169 6.92279 17.394 7.05448C17.2208 7.15346 17.0391 7.21973 16.8827 7.21973C16.6262 7.21973 16.4941 7.06203 16.4941 6.7911Z" fill="#939CA1"/>
<path d="M18.4351 11.8726C18.4351 11.7904 18.4435 11.6914 18.4763 11.5924C18.5427 11.3785 18.6823 11.1721 19.0297 11.1721C19.1869 11.1721 19.3593 11.2132 19.4998 11.3131C19.6243 11.3953 19.6739 11.5018 19.6739 11.6092C19.6739 11.9631 19.0793 12.375 18.7816 12.375C18.5671 12.375 18.4351 12.1687 18.4351 11.8726Z" fill="#939CA1"/>
<path d="M15.1814 22.2656C14.067 22.2656 13.5708 21.7389 13.5708 21.072C13.5708 19.9019 15.6271 18.7577 17.4765 18.0489L17.9559 18.6671C16.8163 19.1193 14.5212 20.0923 14.5212 20.9319C14.5212 21.228 14.6944 21.4428 15.3874 21.4428C16.5934 21.4428 17.8903 20.8573 19.0871 20.2726C19.1779 20.2315 19.2855 20.1904 19.3848 20.1904C19.5412 20.1904 19.6405 20.2399 19.7557 20.4043L19.9542 20.6761C18.5589 21.4428 16.8163 22.2656 15.1814 22.2656Z" fill="#939CA1"/>
<path d="M18.2535 22.5793C17.1635 23.1883 16.0323 23.5926 15.0332 23.5926C13.918 23.5926 12.9273 23.1144 12.1014 21.8705C11.7549 21.3437 11.4824 20.6853 11.1519 20.1006C10.7558 19.4086 10.326 19.0378 9.57496 19.0378C8.88953 19.0378 8.22008 19.318 7.51025 19.6225L7.54305 19.7793C7.60108 20.0343 7.70032 20.2155 7.93918 20.2155C8.04683 20.2155 8.15448 20.1669 8.21251 20.1501C8.60863 20.0259 8.8971 19.9186 9.30247 19.9186C9.92146 19.9186 10.2183 20.2818 10.6397 21.1709L10.797 21.5006C10.3672 21.649 9.35966 21.7229 8.60863 21.7229H8.25372L8.31175 22.0768C8.33614 22.2253 8.39417 22.3486 8.5178 22.4065C8.66582 22.4803 8.88112 22.4887 9.25285 22.4887C10.194 22.4887 10.8794 22.3738 11.2755 22.274C12.2915 23.7821 13.6867 24.3584 15.0332 24.3584C16.1803 24.3584 17.3452 23.9382 18.4604 23.3292L18.2535 22.5793Z" fill="#939CA1"/>
<path d="M19.3759 22.9501L19.1782 22.1918C20.8788 21.2784 22.4313 20.5452 24.9089 20.3062C24.9586 21.2532 24.8921 22.4477 25.5944 22.4477C26.2378 22.4477 27.6414 20.7918 29.2604 18.7166C29.4092 18.8567 29.6481 19.0052 29.8634 19.1696L29.4505 19.7048C27.8727 21.7313 26.5271 23.4609 25.4203 23.4609C24.3884 23.4609 23.9998 22.2497 23.9838 21.3438C22.4069 21.5006 20.92 22.0274 19.3759 22.9501Z" fill="#939CA1"/>
<path d="M41.2257 6.42074C40.5815 6.42074 40.3998 6.06592 40.3998 5.56432C40.3998 4.52671 41.0525 3.03614 41.4654 2.18727H40.4654C39.9457 3.19216 37.8978 6.41235 36.791 7.7469L37.4268 8.42969C38.0214 7.77122 38.6741 6.65141 39.3839 5.54754H39.5159C39.5159 5.60542 39.5084 5.67084 39.5084 5.72872C39.5084 6.6598 39.9869 7.35098 41.1677 7.35098C41.8943 7.35098 43.0339 6.98861 44.1079 6.62625C44.9994 6.32176 45.8169 6.00888 46.2214 5.89397V4.90585C45.7588 5.04509 44.8177 5.40746 43.843 5.7455C42.8195 6.09948 41.8119 6.42074 41.2257 6.42074Z" fill="#939CA1"/>
<path d="M43.4302 9.41008C44.4209 8.99067 46.1963 8.28188 47.2207 7.91113V6.90623C45.1644 7.66452 41.5556 9.15508 39.0947 10.4896C39.1612 10.571 39.5909 11.1724 39.6397 11.2471C40.6801 10.8184 41.6136 10.5383 42.4555 10.5383C43.6371 10.5383 44.6026 10.5383 46.2215 10.1591V9.40169C45.3132 9.56694 44.3469 9.76406 43.7195 9.76406C43.3478 9.76406 43.2401 9.71457 43.2401 9.59126C43.2401 9.51745 43.2897 9.46796 43.4302 9.41008" fill="#939CA1"/>
<path d="M22.2744 14.0386L21.8774 14.7969H26.0977L25.784 14.0386H22.2744Z" fill="#939CA1"/>
<path d="M7.07221 18.5594C7.51795 18.5594 7.88128 18.4109 8.22862 18.2717C8.5583 18.1392 8.88882 18.0075 9.33456 18.0075C10.3917 18.0075 11.6961 18.5183 12.8441 19.004C12.9106 19.0291 12.9846 19.0451 13.0586 19.0451C13.2411 19.0451 13.3816 18.9629 13.4715 18.7901L13.6204 18.5183C12.3572 17.7852 10.3421 17.0026 9.29335 17.0026C8.81481 17.0026 8.46747 17.1267 8.13779 17.2576C7.76606 17.4069 7.44395 17.5629 7.10501 17.5629C6.27156 17.5629 4.13284 16.7392 4.13284 15.9406C4.13284 15.002 7.53478 14.6397 7.90651 14.6397L8.2446 13.873C5.7762 13.873 2.83599 14.7378 2.83599 15.8828C2.83599 16.2124 3.02606 16.3768 3.02606 16.6813C3.02606 17.0932 2.83599 17.3733 2.83599 17.8347C2.83599 18.1392 3.01765 18.5267 3.23211 18.8647C3.46339 19.2187 3.73588 19.4485 3.73588 19.7455C3.73588 19.9678 3.58786 20.2312 3.58786 20.7504C3.58786 21.8618 4.22367 22.5379 5.46166 23.8632L5.70976 24.1266C4.68624 24.5225 2.77796 25.3462 2.33222 25.5349C0.788101 26.1775 0.400391 26.9601 0.400391 28.1956C0.400391 28.6729 0.400391 29.2165 0.43319 29.7021H0.730071C1.3499 29.7021 1.42391 29.3322 1.42391 28.9783C1.42391 28.7392 1.4155 28.4674 1.4155 28.1705C1.42391 27.4877 1.44914 26.8779 2.55509 26.3838C3.00167 26.1859 5.18917 25.2967 6.81654 24.6047C7.29508 24.3984 7.74083 24.2256 8.23619 24.2256C8.78958 24.2256 9.42539 24.4646 10.2185 24.9344C10.8871 25.3294 11.5893 25.8646 12.1427 26.482L12.8441 25.9468C12.2411 25.2388 11.4077 24.6047 10.5734 24.1106C9.73909 23.6166 8.99647 23.328 8.36907 23.328C8.09658 23.328 7.87371 23.3775 7.68364 23.427C7.46077 23.4849 7.25387 23.5503 6.98979 23.5503C6.6845 23.5503 6.42799 23.4765 6.05626 23.0479C5.91581 22.8919 5.02433 21.8786 4.83426 21.5825C4.74343 21.4424 4.57859 21.1622 4.57859 20.8326C4.57859 20.6925 4.60297 20.5281 4.68624 20.3796C5.45325 20.9727 6.4036 21.335 7.55917 21.4751L7.40274 20.6925C5.74256 20.2563 3.97557 18.7985 3.97557 17.8598C3.97557 17.6619 4.02519 17.5218 4.10004 17.349C4.74343 17.942 6.25474 18.5594 7.07221 18.5594Z" fill="#939CA1"/>
<path d="M18.9551 18.7077C19.9955 17.9746 21.0686 17.8924 21.9357 17.8924C22.4563 17.8924 23.0669 17.9662 23.7111 18.0484C24.2317 18.1147 24.7018 18.1642 25.2636 18.1642C26.3948 18.1642 27.5344 17.7523 28.0298 17.5376C28.1702 17.7112 28.4099 17.9419 28.6 18.1063C28.3603 18.2548 26.8414 19.0777 25.2889 19.0777C24.6034 19.0777 23.9508 18.9963 23.389 18.9216C22.8936 18.8562 22.3571 18.7983 21.8365 18.7983C21.2671 18.7983 20.1191 18.9627 19.4093 19.3008L18.9551 18.7077Z" fill="#939CA1"/>
<path d="M34.2895 21.648C33.0506 24.2508 31.1676 26.1449 29.2358 27.2404C28.3191 27.7587 27.4932 28.0968 25.7102 28.0968H21.8533C20.4748 28.0968 19.6078 28.278 18.9307 28.4508C18.2032 28.6403 17.7415 28.8291 17.0065 28.8291C15.9165 28.8291 14.909 28.2939 14.422 27.7839L15.3303 27.0676L14.8762 26.4653C14.6121 26.6557 11.3834 29.0354 10.7055 29.5706L10.6643 29.5462C10.6811 29.3818 10.6811 29.2334 10.6811 29.0849C10.6811 27.2731 9.83844 26.8361 8.55925 26.3261L7.69216 26.8361C9.45073 27.4215 9.88806 27.8904 9.88806 29.1998C9.88806 30.2383 9.51633 30.6493 8.97976 30.963C8.42637 31.2843 7.74094 31.4319 7.13876 31.4319C6.88225 31.4319 6.76703 31.4814 6.6762 31.572C6.57696 31.6709 6.52734 31.8194 6.52734 32.0249V32.3135H6.73423C7.84018 32.3135 8.86454 32.1407 9.9873 31.2591L13.6457 28.4097C14.1655 29.0027 15.4792 29.8264 17.0309 29.8264C17.9064 29.8264 18.4682 29.6117 19.2772 29.4062C19.9046 29.2493 20.5161 29.1092 21.8533 29.1092H25.7262C27.7085 29.1092 28.6664 28.6974 29.7227 28.1052C32.0187 26.8201 33.9758 24.6459 35.0825 22.1496C34.7932 21.9693 34.5207 21.804 34.2895 21.648Z" fill="#939CA1"/>
<path d="M28.0716 24.7446C29.0707 23.1467 29.9622 21.73 32.1505 20.5774C31.9193 20.4374 31.5896 20.2235 31.4155 20.1077C30.5652 20.4785 29.7234 21.2191 29.0051 21.969C27.3534 23.6819 27.5014 24.67 25.7596 25.3377C25.3215 25.5021 24.7849 25.6833 24.0994 25.8401C23.6949 24.5962 22.6798 23.3606 21.6058 23.3606C20.8624 23.3606 20.0037 23.7473 19.013 24.1843C17.849 24.6951 16.7834 25.2798 16.4453 25.5021L16.8995 26.1119C17.246 25.9215 18.2451 25.4274 19.2442 24.9996C20.1113 24.6289 20.896 24.3244 21.4242 24.3244C22.2744 24.3244 22.8278 25.2882 23.134 26.0616C22.0188 26.3258 20.1853 26.3912 19.6328 26.3912C19.3763 26.3912 19.2854 26.4323 19.1946 26.507C19.1122 26.5808 19.0458 26.7125 19.0045 26.8937L18.9389 27.1738H19.5327C22.6218 27.1738 25.5368 26.6882 27.4106 25.5516C27.6755 25.6262 27.9068 25.6749 28.2036 25.6749C29.2768 25.6749 30.3836 25.0902 31.0774 24.5551C31.3247 24.3655 31.3827 24.1919 31.3827 24.0031C31.3827 23.9125 31.3743 23.8303 31.3659 23.7473L31.3331 23.4269C30.3424 24.2086 29.5165 24.7941 28.4929 24.7941C28.3113 24.7941 28.1792 24.7774 28.0716 24.7446Z" fill="#939CA1"/>
</svg>
