<svg width="47" height="56" viewBox="0 0 47 56" fill="none" xmlns="http://www.w3.org/2000/svg">
<g clip-path="url(#clip0_303_30311)">
<path d="M23.4229 13.5547C18.0779 13.5547 13.746 17.8866 13.746 23.1966C13.746 28.5416 18.0779 32.8735 23.4229 32.8735C28.7329 32.8735 33.0997 28.5416 33.0997 23.1966C33.0997 17.8866 28.7329 13.5547 23.4229 13.5547ZM23.4229 29.1005C20.174 29.1005 17.519 26.4455 17.519 23.1966C17.519 19.9477 20.174 17.3276 23.4229 17.3276C26.6718 17.3276 29.3268 19.9477 29.3268 23.1966C29.3268 26.4455 26.6718 29.1005 23.4229 29.1005Z" fill="#D9232E"/>
<path d="M35.0212 34.8297L35.0562 34.7948C38.0256 31.8254 39.8422 27.738 39.8422 23.1966C39.8422 14.1485 32.471 6.77734 23.423 6.77734C14.375 6.77734 7.00378 14.1485 7.00378 23.1966C7.00378 27.738 8.85531 31.8603 11.7898 34.7948C12.1392 35.1442 12.6282 35.3538 13.1523 35.3538C14.2003 35.3538 15.0387 34.5153 15.0387 33.4673C15.0387 32.9433 14.7942 32.4542 14.4448 32.1049C12.1741 29.8341 10.7767 26.69 10.7767 23.1966C10.7767 16.2097 16.4361 10.5503 23.423 10.5503C30.4099 10.5503 36.0693 16.2097 36.0693 23.1966C36.0693 26.69 34.6719 29.8691 32.3662 32.1398L15.947 48.559L18.637 51.214L35.0212 34.8297V34.8297Z" fill="#D9232E"/>
<path d="M46.6195 23.1965C46.6195 10.4105 36.244 0 23.423 0C10.602 0 0.226501 10.4105 0.226501 23.1965C0.226501 29.5895 2.81165 35.4236 7.00379 39.5808C7.35314 39.9301 7.80729 40.1397 8.36624 40.1397C9.37934 40.1397 10.2527 39.3013 10.2527 38.2533C10.2527 37.7293 10.0082 37.2402 9.65882 36.8908C6.16537 33.3974 3.99943 28.5415 3.99943 23.1965C3.99943 12.5065 12.6981 3.77293 23.423 3.77293C34.1479 3.77293 42.8466 12.5065 42.8466 23.1965C42.8466 28.5764 40.6807 33.4323 37.1523 36.9258L20.7331 53.345L23.423 56L39.8422 39.5808C44.0344 35.3886 46.6195 29.5895 46.6195 23.1965V23.1965Z" fill="#D9232E"/>
<path d="M1.84994 53.5838L-0.000162083 50.925L0.301073 50.6227L2.34603 51.4733L1.51487 49.4047L1.81611 49.1024L4.44587 50.9788L4.01174 51.4144L2.42829 50.244L3.24133 52.2592L3.12615 52.3748L1.15267 51.5599L2.28407 53.1481L1.84994 53.5838Z" fill="#D9232E"/>
<path d="M3.95134 48.5004C4.06651 48.3848 4.19075 48.296 4.32405 48.2339C4.45734 48.1718 4.59073 48.1275 4.74214 48.1189C4.88469 48.1192 5.01848 48.1462 5.16133 48.2C5.30418 48.2537 5.42931 48.3253 5.54577 48.4413C5.66224 48.5574 5.74317 48.6912 5.79742 48.8339C5.84271 48.9676 5.87914 49.1102 5.86211 49.2527C5.8629 49.3953 5.8191 49.5288 5.75748 49.6623C5.69585 49.7958 5.60745 49.9204 5.49227 50.036C5.3771 50.1516 5.25286 50.2404 5.11957 50.3025C4.98627 50.3646 4.85288 50.4088 4.71033 50.4085C4.57674 50.4172 4.42513 50.3901 4.29124 50.3453C4.14839 50.2916 4.02317 50.2022 3.9067 50.0861C3.79023 49.9701 3.7094 49.8541 3.65516 49.7114C3.60091 49.5688 3.58229 49.4262 3.5815 49.2836C3.58071 49.1411 3.62451 49.0075 3.68614 48.874C3.74776 48.7405 3.83616 48.616 3.95134 48.5004V48.5004ZM5.12496 49.6699C5.24014 49.5544 5.30176 49.4208 5.30087 49.2605C5.30007 49.1179 5.24583 48.9753 5.12936 48.8592C5.01289 48.7431 4.879 48.6983 4.72749 48.6891C4.56713 48.6888 4.43383 48.7509 4.30969 48.8575C4.19452 48.9731 4.14185 49.1155 4.1516 49.267C4.1525 49.4274 4.20665 49.5522 4.32311 49.6683C4.43958 49.7843 4.57357 49.847 4.73394 49.8473C4.87649 49.8476 5.01874 49.7944 5.12496 49.6699V49.6699Z" fill="#D9232E"/>
<path d="M6.25546 46.3681L6.64965 46.761C6.56952 46.7697 6.49834 46.7874 6.41831 46.8139C6.33837 46.8583 6.26729 46.8938 6.19641 46.9649C6.07238 47.0894 6.01971 47.2318 6.02946 47.3833C6.03036 47.5437 6.09337 47.6596 6.20983 47.7757C6.3263 47.8918 6.46029 47.9544 6.62066 47.9547C6.77207 47.9461 6.90536 47.884 7.0294 47.7596C7.08256 47.7062 7.12676 47.644 7.17086 47.5639C7.2061 47.4927 7.21456 47.4125 7.21407 47.3234L7.61722 47.7252C7.59094 47.8053 7.54684 47.8854 7.50274 47.9655C7.45863 48.0456 7.40557 48.1167 7.34356 48.179C7.22828 48.2767 7.10404 48.3655 6.97075 48.4276C6.83745 48.4897 6.70396 48.5162 6.57037 48.5248C6.43678 48.5334 6.30299 48.5064 6.16014 48.4527C6.03511 48.399 5.90988 48.3096 5.80238 48.2025C5.67695 48.0775 5.57821 47.9437 5.52396 47.801C5.46971 47.6583 5.4511 47.5158 5.45916 47.3643C5.46733 47.2307 5.50227 47.106 5.55504 46.9814C5.6079 46.8746 5.68744 46.759 5.7849 46.6612C5.85578 46.59 5.93561 46.5278 6.01555 46.4835C6.08653 46.4302 6.17542 46.3947 6.25546 46.3681V46.3681Z" fill="#D9232E"/>
<path d="M6.57422 45.958L6.97291 45.5579L7.53733 46.1204L7.51336 45.0156L8.00952 44.5177L8.00779 45.8095L9.48735 45.9195L8.97347 46.4352L7.88603 46.3438L7.88673 46.4685L8.4153 46.9953L8.01661 47.3954L6.57422 45.958V45.958Z" fill="#D9232E"/>
<path d="M8.81511 43.6195C8.93028 43.504 9.05452 43.4151 9.18781 43.353C9.32111 43.291 9.4545 43.2467 9.60591 43.2381C9.74846 43.2384 9.88225 43.2654 10.0251 43.3191C10.1679 43.3729 10.2931 43.4444 10.4095 43.5605C10.526 43.6765 10.6069 43.8103 10.6612 43.953C10.7065 44.0867 10.7429 44.2294 10.7347 44.363C10.7267 44.5144 10.6829 44.648 10.6212 44.7815C10.5596 44.915 10.4712 45.0395 10.356 45.1551C10.2409 45.2707 10.1166 45.3595 9.98334 45.4216C9.85004 45.4837 9.72551 45.5191 9.5741 45.5277C9.44051 45.5363 9.2889 45.5093 9.15501 45.4644C9.01216 45.4107 8.88694 45.3213 8.77047 45.2053C8.654 45.0892 8.57317 44.9732 8.51893 44.8306C8.46468 44.6879 8.44606 44.5453 8.44527 44.4028C8.45334 44.2513 8.48828 44.1267 8.54991 43.9932C8.61153 43.8597 8.69993 43.7351 8.81511 43.6195V43.6195ZM9.98873 44.7891C10.1039 44.6735 10.1655 44.54 10.1646 44.3796C10.1638 44.2371 10.1096 44.0944 9.99313 43.9783C9.87666 43.8623 9.74277 43.8175 9.59126 43.8082C9.43089 43.8079 9.2976 43.87 9.17346 43.9767C9.05829 44.0922 9.00562 44.2347 9.01537 44.3861C9.01627 44.5465 9.07042 44.6714 9.18688 44.7874C9.30335 44.9035 9.43734 44.9661 9.5977 44.9664C9.74026 44.9667 9.88251 44.9136 9.98873 44.7891Z" fill="#D9232E"/>
<path d="M9.96735 42.5527L10.5964 41.9215C10.685 41.8326 10.756 41.7793 10.827 41.7438C10.8892 41.6994 10.9603 41.6817 11.0315 41.664C11.1028 41.6642 11.1741 41.6643 11.2544 41.6912C11.3258 41.7092 11.3884 41.7539 11.4511 41.8163C11.5138 41.8788 11.5499 41.9502 11.5682 42.0393C11.5865 42.1284 11.587 42.2175 11.5518 42.3066C11.5962 42.2799 11.6318 42.2622 11.6851 42.2445C11.7385 42.2268 11.783 42.2179 11.8275 42.2091C11.8988 42.2093 11.9701 42.2272 12.0326 42.2541C12.0952 42.281 12.1488 42.3167 12.2026 42.3703C12.2742 42.4417 12.3281 42.5131 12.3553 42.5933C12.3824 42.6736 12.3829 42.7626 12.3745 42.8428C12.3749 42.9141 12.3396 42.9853 12.3044 43.0565C12.2691 43.1277 12.2071 43.1899 12.1451 43.2522L11.4097 43.9901L9.96735 42.5527ZM10.9394 42.724L11.1255 42.5373L11.1875 42.4751C11.1962 42.4484 11.205 42.4217 11.2049 42.4038C11.2137 42.3771 11.2224 42.3504 11.2134 42.3237C11.2043 42.2969 11.1864 42.2791 11.1595 42.2523C11.1416 42.2344 11.1237 42.2166 11.0969 42.2076C11.0701 42.1987 11.0434 42.1897 11.0167 42.1985C10.9989 42.1985 10.9722 42.2074 10.9545 42.2251C10.9456 42.234 10.9101 42.2518 10.8746 42.2873L10.6886 42.474L10.9394 42.724V42.724ZM11.4949 43.2775L11.6898 43.0819C11.7252 43.0464 11.7428 43.0108 11.7694 42.9841C11.7782 42.9574 11.7958 42.9218 11.8046 42.8951C11.7955 42.8683 11.8043 42.8416 11.7863 42.806C11.7772 42.7792 11.7503 42.7524 11.7324 42.7346C11.7055 42.7078 11.6876 42.6899 11.6608 42.681C11.634 42.672 11.6074 42.6809 11.5806 42.6719C11.5539 42.6807 11.5272 42.6896 11.5007 42.7163C11.4651 42.734 11.4385 42.7607 11.403 42.7784L11.1992 42.9829L11.4949 43.2775Z" fill="#D9232E"/>
<path d="M12.5905 40.0106L12.9847 40.4034C12.9046 40.4122 12.8245 40.4387 12.7445 40.4653C12.6734 40.5008 12.5935 40.5452 12.5314 40.6074C12.3985 40.7408 12.3459 40.8832 12.3556 41.0347C12.3654 41.1862 12.4195 41.311 12.536 41.4271C12.6525 41.5431 12.7953 41.5969 12.9468 41.6061C13.0982 41.5975 13.2315 41.5354 13.3556 41.4109C13.4176 41.3487 13.4618 41.2864 13.497 41.2152C13.5323 41.144 13.5496 41.055 13.5491 40.9659L13.9523 41.3676C13.9171 41.4567 13.8819 41.5279 13.8378 41.6079C13.7937 41.688 13.7406 41.7592 13.6697 41.8303C13.5545 41.9281 13.4302 42.0169 13.2969 42.079C13.1636 42.1411 13.0301 42.1675 12.9054 42.1673C12.7718 42.1759 12.6292 42.1578 12.4952 42.0952C12.3613 42.0503 12.2361 41.961 12.1285 41.8539C12.0031 41.7289 11.9132 41.5861 11.859 41.4435C11.8047 41.3008 11.7773 41.1671 11.7853 41.0157C11.7935 40.8821 11.8284 40.7574 11.8812 40.6328C11.9429 40.5171 12.0136 40.4103 12.1111 40.3125C12.1819 40.2414 12.2618 40.1792 12.3417 40.1348C12.4127 40.0815 12.5016 40.0461 12.5905 40.0106V40.0106Z" fill="#D9232E"/>
<path d="M12.8823 39.6279L13.281 39.2278L13.8454 39.7903L13.8126 38.6944L14.3176 38.1876L14.3159 39.4794L15.7954 39.5894L15.2816 40.1051L14.1941 40.0137L14.1948 40.1385L14.7234 40.6652L14.3247 41.0653L12.8823 39.6279V39.6279Z" fill="#D9232E"/>
<path d="M14.5479 37.957L14.9554 37.5481L15.8513 38.4408L15.6111 36.8901L16.0186 36.4812L17.461 37.9185L17.0535 38.3275L16.1665 37.4437L16.3978 38.9854L15.9903 39.3944L14.5479 37.957Z" fill="#D9232E"/>
<path d="M16.4262 36.0716L16.8249 35.6716L17.7207 36.5643L17.4893 35.0047L17.888 34.6047L19.3304 36.042L18.9317 36.4421L18.0448 35.5583L18.2672 37.1089L17.8685 37.509L16.4262 36.0716ZM16.7195 34.3439L17.1018 34.211C17.1739 34.3537 17.1926 34.5141 17.1579 34.6744C17.1142 34.8258 17.0259 34.9681 16.9018 35.0926C16.7778 35.2171 16.6446 35.297 16.4756 35.3412C16.3243 35.3854 16.1639 35.3673 16.0209 35.2957L16.1613 34.904C16.2329 34.9576 16.3131 34.9667 16.4111 34.958C16.5 34.9403 16.5711 34.9048 16.642 34.8337C16.7129 34.7626 16.757 34.6825 16.7743 34.5934C16.7738 34.5043 16.7645 34.4241 16.7195 34.3439V34.3439Z" fill="#D9232E"/>
<path d="M5.99399 52.2024L5.49784 52.7003L7.34338 54.5394L6.91811 54.9662L5.07256 53.1271L4.57641 53.625L4.20013 53.25L5.61771 51.8275L5.99399 52.2024Z" fill="#D9232E"/>
<path d="M8.05907 53.4452L9.01768 54.4005L8.61898 54.8006L6.40612 52.5954L6.80482 52.1953L6.99295 52.3828C6.97444 52.258 6.97375 52.1333 7.01765 52.0176C7.0526 51.8929 7.12328 51.7862 7.22959 51.6795C7.43337 51.475 7.67338 51.3775 7.95858 51.3959C8.23482 51.4054 8.47602 51.5217 8.69103 51.736C8.91501 51.9592 9.04113 52.2089 9.05157 52.4851C9.06202 52.7613 8.95649 53.0105 8.75271 53.215C8.65526 53.3128 8.54874 53.3839 8.44202 53.4193C8.32645 53.4636 8.19286 53.4722 8.05907 53.4452V53.4452ZM7.47277 52.1522C7.3576 52.2678 7.30493 52.4102 7.30572 52.5527C7.31548 52.7042 7.36973 52.8469 7.49505 52.954C7.61152 53.0701 7.74551 53.1327 7.88806 53.133C8.04843 53.1334 8.17286 53.0802 8.28804 52.9646C8.40322 52.849 8.46484 52.7155 8.45509 52.564C8.46315 52.4126 8.40005 52.2788 8.28358 52.1628C8.16711 52.0467 8.03312 51.9841 7.88171 51.9927C7.73021 51.9834 7.58795 52.0366 7.47277 52.1522V52.1522Z" fill="#D9232E"/>
<path d="M9.57138 49.7949L9.38324 49.6074L9.78193 49.2073L11.2243 50.6447L10.8256 51.0447L10.6375 50.8573C10.665 50.991 10.6657 51.1157 10.6218 51.2314C10.5867 51.3382 10.5249 51.4361 10.4274 51.5339C10.2148 51.7473 9.96593 51.8537 9.68969 51.8442C9.40449 51.8258 9.15443 51.7184 8.93942 51.5041C8.71544 51.2809 8.59828 51.0401 8.58784 50.7639C8.56843 50.4788 8.6651 50.2384 8.87773 50.0251C8.97519 49.9273 9.09057 49.8473 9.20624 49.8208C9.32182 49.7765 9.44655 49.7768 9.57138 49.7949ZM9.34241 50.2755C9.21837 50.4 9.17457 50.5335 9.1665 50.6849C9.17625 50.8364 9.23936 50.9702 9.35583 51.0862C9.47229 51.2023 9.60628 51.2649 9.74883 51.2652C9.9092 51.2656 10.0336 51.2124 10.1577 51.0879C10.2729 50.9723 10.3256 50.8477 10.3159 50.6962C10.3239 50.5448 10.2608 50.411 10.1444 50.295C10.0279 50.1789 9.8939 50.1163 9.74239 50.107C9.59098 50.1156 9.45759 50.1599 9.34241 50.2755Z" fill="#D9232E"/>
<path d="M11.5962 50.2723L10.1538 48.835L10.5614 48.426L11.072 48.9349L11.6302 48.3747L11.1195 47.8659L11.5271 47.4569L12.9695 48.8942L12.5619 49.3032L11.9796 48.7229L11.4214 49.283L12.0038 49.8633L11.5962 50.2723Z" fill="#D9232E"/>
<path d="M13.025 46.0429L13.4192 46.4358C13.3391 46.4445 13.2501 46.4621 13.179 46.4976C13.0989 46.5242 13.0368 46.5686 12.9659 46.6397C12.8419 46.7642 12.7804 46.9155 12.7901 47.067C12.7909 47.2096 12.854 47.3433 12.9704 47.4416C13.0958 47.5666 13.2298 47.6292 13.3812 47.6206C13.5416 47.6209 13.6749 47.5588 13.7989 47.4344C13.8521 47.381 13.8963 47.3188 13.9315 47.2476C13.9578 47.1674 13.9841 47.0873 13.9836 46.9982L14.3778 47.391C14.3605 47.4801 14.3164 47.5602 14.2723 47.6403C14.2282 47.7204 14.1661 47.7826 14.1041 47.8448C13.989 47.9604 13.8736 48.0404 13.7403 48.1024C13.607 48.1645 13.4735 48.191 13.3399 48.1996C13.2063 48.2082 13.0725 48.1812 12.9297 48.1275C12.8046 48.0738 12.6794 47.9844 12.563 47.8684C12.4465 47.7523 12.3477 47.6185 12.2935 47.4758C12.2392 47.3331 12.2206 47.1906 12.2287 47.0391C12.2369 46.9055 12.2629 46.7897 12.3246 46.6562C12.3774 46.5494 12.457 46.4338 12.5544 46.336C12.6253 46.2649 12.7051 46.2027 12.7761 46.1493C12.8561 46.105 12.936 46.0606 13.025 46.0429V46.0429Z" fill="#D9232E"/>
<path d="M13.3257 45.6523L14.6812 44.292L16.1236 45.7294L15.7161 46.1384L14.6231 45.0492L14.0738 45.6004L15.1668 46.6896L14.7681 47.0897L13.3257 45.6523V45.6523Z" fill="#D9232E"/>
<path d="M15.7346 43.1439C15.8498 43.0283 15.9652 42.9483 16.0985 42.8862C16.2406 42.8153 16.3651 42.7799 16.5166 42.7713C16.6501 42.7627 16.8018 42.7897 16.9446 42.8434C17.0785 42.8883 17.2037 42.9776 17.3202 43.0937C17.4367 43.2097 17.5264 43.3347 17.5717 43.4684C17.626 43.611 17.6446 43.7536 17.6454 43.8962C17.6284 44.0387 17.6024 44.1723 17.5319 44.3147C17.4791 44.4393 17.3818 44.5549 17.2666 44.6705C17.1514 44.7861 17.0361 44.8838 16.9028 44.9459C16.7695 45.008 16.6272 45.0434 16.4936 45.052C16.3422 45.0606 16.2084 45.0336 16.0656 44.9798C15.9317 44.935 15.7976 44.8546 15.6811 44.7385C15.5646 44.6224 15.4837 44.4886 15.4384 44.3549C15.3842 44.2122 15.3478 44.0696 15.3648 43.9271C15.364 43.7845 15.4078 43.651 15.4694 43.5175C15.531 43.384 15.6194 43.2594 15.7346 43.1439ZM16.9082 44.3134C17.0234 44.1978 17.085 44.0643 17.0753 43.9128C17.0744 43.7525 17.0202 43.6276 16.9038 43.5116C16.7873 43.3955 16.6623 43.3418 16.5019 43.3414C16.3504 43.3322 16.2081 43.3854 16.093 43.501C15.9778 43.6165 15.9251 43.759 15.926 43.9194C15.9268 44.0619 15.9811 44.2046 16.0975 44.3206C16.214 44.4367 16.3479 44.4815 16.4994 44.4907C16.6598 44.4911 16.802 44.4379 16.9082 44.3134Z" fill="#D9232E"/>
<path d="M18.5401 42.9275L19.4987 43.8828L19.0912 44.2918L16.8783 42.0866L17.2858 41.6777L17.474 41.8651C17.4466 41.7493 17.4548 41.6156 17.4898 41.5088C17.5248 41.3841 17.6043 41.2685 17.7018 41.1707C17.9144 40.9573 18.1544 40.8598 18.4396 40.8782C18.707 40.8966 18.957 41.004 19.181 41.2272C19.396 41.4415 19.5133 41.7001 19.5237 41.9763C19.5342 42.2525 19.4375 42.4928 19.2249 42.7062C19.1363 42.7951 19.0298 42.8662 18.9142 42.9105C18.7986 42.9548 18.6739 42.9545 18.5401 42.9275V42.9275ZM17.9538 41.6345C17.8386 41.7501 17.786 41.8925 17.7868 42.0351C17.7876 42.1954 17.8508 42.3292 17.9672 42.4453C18.0837 42.5613 18.2177 42.624 18.3691 42.6154C18.5206 42.6246 18.6539 42.5625 18.7691 42.4469C18.8842 42.3313 18.9459 42.1978 18.9361 42.0463C18.9353 41.9038 18.8811 41.7611 18.7557 41.6361C18.6481 41.529 18.5142 41.4664 18.3627 41.475C18.2112 41.4657 18.069 41.5189 17.9538 41.6345Z" fill="#D9232E"/>
<path d="M20.1339 39.518L19.744 39.9092L20.837 40.9984L20.4295 41.4074L19.3365 40.3182L18.9378 40.7183L18.5884 40.3701L19.7845 39.1699L20.1339 39.518Z" fill="#D9232E"/>
</g>
<defs>
<clipPath id="clip0_303_30311">
<rect width="46.6197" height="56" fill="white"/>
</clipPath>
</defs>
</svg>
